<svg xmlns="http://www.w3.org/2000/svg" display="inherit">

    <symbol viewBox="0 0 12 24" id="ic_fb">
        <g fill="inherit" xmlns="http://www.w3.org/2000/svg">
            <path d="M3.06332 24V12.7385H0V8.68382H3.06332V5.2206C3.06332 2.49917 4.87284 0 9.04235 0C10.7305 0 11.9788 0.15732 11.9788 0.15732L11.8805 3.9437C11.8805 3.9437 10.6074 3.93166 9.21814 3.93166C7.71455 3.93166 7.47365 4.60522 7.47365 5.72316V8.68382H12L11.8031 12.7385H7.47365V24H3.06332Z" fill="inherit"/>
        </g>
    </symbol>
    <symbol id="ic_inst" viewBox="0 0 24 24">
        <g fill="inherit" xmlns="http://www.w3.org/2000/svg">
            <path fill-rule="evenodd" clip-rule="evenodd" d="M7.05273 0.072C8.33236 0.0130909 8.74036 0 12 0C15.2596 0 15.6676 0.0141818 16.9462 0.072C18.2247 0.129818 19.0975 0.333818 19.8611 0.629455C20.6607 0.931636 21.3862 1.404 21.9862 2.01491C22.5971 2.61382 23.0684 3.33818 23.3695 4.13891C23.6662 4.90255 23.8691 5.77527 23.928 7.05164C23.9869 8.33345 24 8.74145 24 12C24 15.2596 23.9858 15.6676 23.928 16.9473C23.8702 18.2236 23.6662 19.0964 23.3695 19.86C23.0684 20.6608 22.5963 21.3864 21.9862 21.9862C21.3862 22.5971 20.6607 23.0684 19.8611 23.3695C19.0975 23.6662 18.2247 23.8691 16.9484 23.928C15.6676 23.9869 15.2596 24 12 24C8.74036 24 8.33236 23.9858 7.05273 23.928C5.77636 23.8702 4.90364 23.6662 4.14 23.3695C3.33919 23.0683 2.61362 22.5963 2.01382 21.9862C1.40332 21.3869 0.930889 20.6617 0.629455 19.8611C0.333818 19.0975 0.130909 18.2247 0.072 16.9484C0.0130909 15.6665 0 15.2585 0 12C0 8.74036 0.0141818 8.33236 0.072 7.05382C0.129818 5.77527 0.333818 4.90255 0.629455 4.13891C0.931334 3.33827 1.40413 2.61307 2.01491 2.01382C2.61386 1.40346 3.3387 0.931029 4.13891 0.629455C4.90255 0.333818 5.77527 0.130909 7.05164 0.072H7.05273ZM16.8491 2.232C15.5836 2.17418 15.204 2.16218 12 2.16218C8.796 2.16218 8.41636 2.17418 7.15091 2.232C5.98036 2.28545 5.34545 2.48073 4.92218 2.64545C4.36255 2.86364 3.96218 3.12218 3.54218 3.54218C3.14405 3.92951 2.83765 4.40104 2.64545 4.92218C2.48073 5.34545 2.28545 5.98036 2.232 7.15091C2.17418 8.41636 2.16218 8.796 2.16218 12C2.16218 15.204 2.17418 15.5836 2.232 16.8491C2.28545 18.0196 2.48073 18.6545 2.64545 19.0778C2.83745 19.5982 3.144 20.0705 3.54218 20.4578C3.92945 20.856 4.40182 21.1625 4.92218 21.3545C5.34545 21.5193 5.98036 21.7145 7.15091 21.768C8.41636 21.8258 8.79491 21.8378 12 21.8378C15.2051 21.8378 15.5836 21.8258 16.8491 21.768C18.0196 21.7145 18.6545 21.5193 19.0778 21.3545C19.6375 21.1364 20.0378 20.8778 20.4578 20.4578C20.856 20.0705 21.1625 19.5982 21.3545 19.0778C21.5193 18.6545 21.7145 18.0196 21.768 16.8491C21.8258 15.5836 21.8378 15.204 21.8378 12C21.8378 8.796 21.8258 8.41636 21.768 7.15091C21.7145 5.98036 21.5193 5.34545 21.3545 4.92218C21.1364 4.36255 20.8778 3.96218 20.4578 3.54218C20.0705 3.14408 19.5989 2.83768 19.0778 2.64545C18.6545 2.48073 18.0196 2.28545 16.8491 2.232V2.232ZM10.4673 15.6993C11.3233 16.0556 12.2764 16.1037 13.1639 15.8353C14.0514 15.567 14.8182 14.9988 15.3334 14.2279C15.8485 13.457 16.0801 12.5311 15.9884 11.6085C15.8968 10.6858 15.4876 9.82361 14.8309 9.16909C14.4123 8.7507 13.9061 8.43034 13.3487 8.23107C12.7914 8.0318 12.1968 7.95858 11.6078 8.01667C11.0188 8.07477 10.45 8.26274 9.94233 8.56705C9.43468 8.87136 9.00081 9.28445 8.67197 9.77657C8.34312 10.2687 8.12748 10.8276 8.04056 11.413C7.95365 11.9985 7.99762 12.596 8.16932 13.1624C8.34101 13.7288 8.63616 14.2501 9.03351 14.6888C9.43087 15.1275 9.92054 15.4726 10.4673 15.6993ZM7.63855 7.63855C8.2113 7.06579 8.89126 6.61146 9.6396 6.30149C10.3879 5.99151 11.19 5.83197 12 5.83197C12.81 5.83197 13.6121 5.99151 14.3604 6.30148C15.1087 6.61146 15.7887 7.06579 16.3615 7.63855C16.9342 8.2113 17.3885 8.89126 17.6985 9.6396C18.0085 10.3879 18.168 11.19 18.168 12C18.168 12.81 18.0085 13.6121 17.6985 14.3604C17.3885 15.1087 16.9342 15.7887 16.3615 16.3615C15.2047 17.5182 13.6359 18.168 12 18.168C10.3641 18.168 8.79528 17.5182 7.63855 16.3615C6.48182 15.2047 5.83197 13.6359 5.83197 12C5.83197 10.3641 6.48182 8.79528 7.63855 7.63855V7.63855ZM19.536 6.75055C19.6779 6.61666 19.7916 6.45565 19.8702 6.27706C19.9487 6.09847 19.9907 5.90593 19.9935 5.71083C19.9964 5.51574 19.9601 5.32205 19.8867 5.14125C19.8134 4.96044 19.7045 4.79619 19.5665 4.65822C19.4285 4.52026 19.2643 4.41137 19.0835 4.33802C18.9027 4.26467 18.709 4.22834 18.5139 4.23118C18.3188 4.23403 18.1263 4.27599 17.9477 4.35458C17.7691 4.43317 17.6081 4.5468 17.4742 4.68873C17.2138 4.96476 17.0712 5.33141 17.0768 5.71083C17.0823 6.09026 17.2355 6.4526 17.5038 6.72092C17.7721 6.98924 18.1345 7.14243 18.5139 7.14796C18.8933 7.15349 19.26 7.01093 19.536 6.75055V6.75055Z" fill="inherit"/>
        </g>
    </symbol>
    <symbol viewBox="0 0 24 14" id="ic_vk">
        <g fill="inherit" xmlns="http://www.w3.org/2000/svg">
            <path fill-rule="evenodd" clip-rule="evenodd" d="M23.45 0.948C23.616 0.402 23.45 0 22.655 0H20.03C19.362 0 19.054 0.347 18.887 0.73C18.887 0.73 17.552 3.926 15.661 6.002C15.049 6.604 14.771 6.795 14.437 6.795C14.27 6.795 14.019 6.604 14.019 6.057V0.948C14.019 0.292 13.835 0 13.279 0H9.151C8.734 0 8.483 0.304 8.483 0.593C8.483 1.214 9.429 1.358 9.526 3.106V6.904C9.526 7.737 9.373 7.888 9.039 7.888C8.149 7.888 5.984 4.677 4.699 1.003C4.45 0.288 4.198 0 3.527 0H0.9C0.15 0 0 0.347 0 0.73C0 1.412 0.89 4.8 4.145 9.281C6.315 12.341 9.37 14 12.153 14C13.822 14 14.028 13.632 14.028 12.997V10.684C14.028 9.947 14.186 9.8 14.715 9.8C15.105 9.8 15.772 9.992 17.33 11.467C19.11 13.216 19.403 14 20.405 14H23.03C23.78 14 24.156 13.632 23.94 12.904C23.702 12.18 22.852 11.129 21.725 9.882C21.113 9.172 20.195 8.407 19.916 8.024C19.527 7.533 19.638 7.314 19.916 6.877C19.916 6.877 23.116 2.451 23.449 0.948H23.45Z" fill="inherit"/>
        </g>
    </symbol>
    <symbol viewBox="0 0 25 24" id="ic_github">
        <g fill="inherit" xmlns="http://www.w3.org/2000/svg">
            <path fill-rule="evenodd" clip-rule="evenodd" d="M12.3035 0C5.50583 0 0 5.50583 0 12.3035C0 17.7478 3.52188 22.3463 8.41254 23.9765C9.02771 24.0842 9.2584 23.715 9.2584 23.3921C9.2584 23.0999 9.24302 22.131 9.24302 21.1005C6.15176 21.6696 5.35203 20.347 5.10596 19.6549C4.96755 19.3012 4.36775 18.2092 3.84485 17.917C3.41423 17.6863 2.79905 17.1173 3.82947 17.1019C4.79837 17.0865 5.49045 17.9939 5.72114 18.363C6.82846 20.2239 8.59709 19.701 9.30454 19.3781C9.4122 18.5783 9.73517 18.04 10.0889 17.7325C7.35136 17.4249 4.49079 16.3637 4.49079 11.6576C4.49079 10.3196 4.96755 9.21227 5.7519 8.35102C5.62886 8.04343 5.19824 6.78232 5.87493 5.09058C5.87493 5.09058 6.90535 4.76762 9.2584 6.3517C10.2427 6.07487 11.2885 5.93645 12.3343 5.93645C13.3801 5.93645 14.4259 6.07487 15.4102 6.3517C17.7632 4.75224 18.7936 5.09058 18.7936 5.09058C19.4703 6.78232 19.0397 8.04343 18.9167 8.35102C19.701 9.21227 20.1778 10.3042 20.1778 11.6576C20.1778 16.3791 17.3018 17.4249 14.5643 17.7325C15.0103 18.1169 15.3948 18.8552 15.3948 20.0086C15.3948 21.6542 15.3794 22.9768 15.3794 23.3921C15.3794 23.715 15.6101 24.0995 16.2253 23.9765C18.6677 23.1519 20.7901 21.5821 22.2936 19.4881C23.7972 17.3942 24.6063 14.8814 24.6071 12.3035C24.6071 5.50583 19.1012 0 12.3035 0Z" fill="inherit"/>
        </g>
    </symbol>
    <symbol id="ic_youtube" viewBox="0 0 25 17">
        <g fill="inherit" xmlns="http://www.w3.org/2000/svg">
            <path d="M23.5006 2.51196C23.3647 2.02719 23.1 1.5883 22.7346 1.24196C22.3589 0.884962 21.8984 0.629595 21.3966 0.499959C19.5186 0.00495878 11.9946 0.00495889 11.9946 0.00495889C8.85795 -0.0307285 5.72205 0.126233 2.60462 0.474959C2.10281 0.614172 1.64318 0.875246 1.26662 1.23496C0.896617 1.59096 0.628617 2.02996 0.488617 2.51096C0.15231 4.3227 -0.0110908 6.1623 0.000617183 8.00496C-0.0113828 9.84596 0.151617 11.685 0.488617 13.499C0.625617 13.978 0.892617 14.415 1.26362 14.768C1.63462 15.121 2.09662 15.376 2.60462 15.511C4.50762 16.005 11.9946 16.005 11.9946 16.005C15.1353 16.0407 18.2752 15.8837 21.3966 15.535C21.8984 15.4053 22.3589 15.15 22.7346 14.793C23.1046 14.44 23.3676 14.001 23.4996 13.523C23.8447 11.7119 24.0125 9.87155 24.0006 8.02796C24.0266 6.17656 23.859 4.32752 23.5006 2.51096V2.51196ZM9.60262 11.429V4.58196L15.8626 8.00596L9.60262 11.429Z" fill="inherit"/>
        </g>
    </symbol>
    <symbol viewBox="0 0 24 24" id="ic_branch">
        <g fill="inherit" xmlns="http://www.w3.org/2000/svg">
            <path d="M9.94944 18.2927L7.12141 21.1207C5.94897 22.2932 4.05028 22.2932 2.87882 21.121C1.70713 19.9493 1.70713 18.0504 2.87859 16.8789L8.53564 11.2219C9.7071 10.0504 11.606 10.0504 12.7774 11.2219C13.1679 11.6124 13.8011 11.6124 14.1917 11.2219C14.5822 10.8314 14.5822 10.1982 14.1917 9.80767C12.2391 7.85513 9.07395 7.85513 7.12141 9.80767L1.46441 15.4647C-0.488136 17.4172 -0.488136 20.5824 1.46441 22.5349C3.41672 24.4885 6.58211 24.4885 8.53568 22.5349L11.3637 19.7069C11.7542 19.3164 11.7542 18.6832 11.3637 18.2927C10.9732 17.9021 10.34 17.9022 9.94944 18.2927Z" fill="inherit"/>
            <path d="M22.5351 1.46441C20.5826 -0.488136 17.4164 -0.488136 15.4638 1.46441L12.0708 4.85743C11.6803 5.24794 11.6803 5.88114 12.0708 6.27165C12.4613 6.66217 13.0945 6.66217 13.4851 6.27165L16.8781 2.87863C18.0495 1.70713 19.9494 1.70713 21.1209 2.87863C22.2924 4.05009 22.2924 5.94896 21.1209 7.12042L14.8989 13.3425C13.7274 14.514 11.8285 14.514 10.6571 13.3425C10.2665 12.952 9.63336 12.952 9.24284 13.3425C8.85232 13.733 8.85232 14.3662 9.24284 14.7567C11.1954 16.7093 14.3605 16.7093 16.3131 14.7567L22.5351 8.5347C24.4877 6.58216 24.4877 3.41695 22.5351 1.46441Z" fill="inherit"/>
        </g>
    </symbol>
    <symbol viewBox="0 0 30 24" id="ic_twitter">
        <g fill="inherit" xmlns="http://www.w3.org/2000/svg">
            <path d="M29.5226 2.84684C28.4369 3.32792 27.2706 3.65297 26.0445 3.79989C27.3097 3.0429 28.2561 1.85148 28.7074 0.447947C27.5188 1.15395 26.2179 1.6509 24.8614 1.91719C23.9491 0.943152 22.7408 0.297546 21.424 0.0806033C20.1072 -0.13634 18.7557 0.0875171 17.5792 0.71742C16.4027 1.34732 15.467 2.34803 14.9175 3.56417C14.368 4.78031 14.2354 6.14385 14.5403 7.44309C12.1319 7.32216 9.77581 6.69618 7.625 5.60576C5.47418 4.51535 3.57668 2.98487 2.05564 1.11366C1.53555 2.0108 1.2365 3.05097 1.2365 4.15875C1.23592 5.15601 1.4815 6.13799 1.95146 7.01757C2.42142 7.89715 3.10122 8.64713 3.93054 9.20098C2.96874 9.17037 2.02817 8.91049 1.18709 8.44295V8.52096C1.187 9.91966 1.67082 11.2753 2.55645 12.3579C3.44209 13.4405 4.67501 14.1833 6.04599 14.4603C5.15376 14.7018 4.21833 14.7374 3.31034 14.5644C3.69715 15.7678 4.45062 16.8203 5.46527 17.5742C6.47992 18.3282 7.70495 18.7461 8.96886 18.7692C6.8233 20.4535 4.17353 21.3672 1.44584 21.3632C0.962652 21.3633 0.479877 21.3351 0 21.2786C2.76877 23.0589 5.99182 24.0037 9.28351 24C20.4263 24 26.5178 14.7711 26.5178 6.76698C26.5178 6.50694 26.5113 6.24429 26.4996 5.98425C27.6845 5.12738 28.7073 4.0663 29.52 2.85074L29.5226 2.84684V2.84684Z" fill="inherit"/>
        </g>
    </symbol>
    <symbol id="ic_web" viewBox="0 0 24 24">
        <g fill="inherit" xmlns="http://www.w3.org/2000/svg">
            <path d="M20.4853 3.51474C18.2188 1.24819 15.2053 0 12 0C8.79471 0 5.7812 1.24819 3.51474 3.51469C1.24819 5.7812 0 8.79471 0 12C0 15.2053 1.24819 18.2188 3.51474 20.4853C5.7812 22.7518 8.79471 24 12 24C15.2054 24 18.2188 22.7518 20.4854 20.4853C22.7518 18.2188 24 15.2053 24 12C24 8.79466 22.7518 5.7812 20.4853 3.51474ZM4.51013 4.51013C5.56534 3.45493 6.80411 2.65008 8.1543 2.12475C7.79467 2.57372 7.45816 3.08977 7.14976 3.67018C6.79159 4.34424 6.48254 5.08454 6.22515 5.87528C5.3335 5.72729 4.50732 5.54532 3.76923 5.33176C4.00056 5.04742 4.24735 4.77292 4.51013 4.51013ZM2.91699 6.54306C3.78029 6.81948 4.76757 7.05259 5.84486 7.23723C5.54486 8.51064 5.36828 9.88094 5.32614 11.2962H1.43138C1.542 9.59777 2.0521 7.97683 2.91699 6.54306ZM2.84035 17.3268C2.02214 15.9253 1.53868 14.3511 1.43133 12.7039H5.32881C5.37484 14.0787 5.5479 15.41 5.83778 16.6501C4.73837 16.8283 3.72629 17.0555 2.84035 17.3268ZM4.51013 19.4899C4.21107 19.1908 3.93254 18.8767 3.6743 18.5498C4.43945 18.3377 5.29482 18.158 6.21559 18.0139C6.47481 18.8156 6.78719 19.5657 7.14972 20.2481C7.48581 20.8806 7.85533 21.4363 8.25175 21.9124C6.86378 21.3882 5.5907 20.5704 4.51013 19.4899ZM11.2961 22.4117C10.227 22.1122 9.21564 21.1359 8.39289 19.5875C8.10513 19.046 7.85238 18.4552 7.63586 17.8256C8.79508 17.698 10.0286 17.6226 11.2961 17.6049V22.4117V22.4117ZM11.2961 16.1971C9.89046 16.2163 8.52035 16.3045 7.23723 16.4552C6.9542 15.2852 6.7839 14.0187 6.73717 12.7039H11.2962V16.1971H11.2961ZM11.2961 11.2961H6.7345C6.7772 9.94455 6.95022 8.64278 7.24206 7.44297C8.51697 7.60234 9.88422 7.69928 11.2961 7.72703V11.2961ZM11.2961 6.31914C10.0237 6.2935 8.79288 6.21053 7.64186 6.07515C7.85706 5.45209 8.10785 4.86728 8.39289 4.3307C9.2156 2.78232 10.227 1.806 11.2961 1.50652V6.31914ZM21.1274 6.61783C21.9652 8.03313 22.4599 9.62716 22.5688 11.2961H18.674C18.6323 9.89721 18.4591 8.54228 18.1654 7.28144C19.2498 7.10631 20.2493 6.88351 21.1274 6.61783ZM19.4899 4.51013C19.7725 4.79274 20.0365 5.08899 20.2827 5.39654C19.5293 5.60228 18.6903 5.77689 17.7888 5.91742C17.5287 5.11079 17.2149 4.35624 16.8503 3.67018C16.5419 3.08977 16.2054 2.57372 15.8458 2.12475C17.1959 2.65008 18.4347 3.45493 19.4899 4.51013ZM12.7039 12.7039H17.2629C17.2159 14.029 17.0433 15.305 16.7562 16.4826C15.4815 16.3241 14.1148 16.2281 12.7039 16.2011V12.7039ZM12.7039 11.2961V7.73172C14.1104 7.71325 15.4816 7.62573 16.7659 7.47559C17.053 8.66636 17.2232 9.95679 17.2656 11.2961H12.7039ZM12.7038 1.50652H12.7039C13.773 1.806 14.7844 2.78232 15.6071 4.3307C15.8967 4.87571 16.1509 5.4706 16.3684 6.10482C15.2076 6.23195 13.9727 6.30681 12.7038 6.32392V1.50652V1.50652ZM12.7039 22.4117V17.609C13.9752 17.6339 15.205 17.7161 16.3556 17.8506C16.141 18.4709 15.891 19.0532 15.6072 19.5875C14.7844 21.1359 13.773 22.1122 12.7039 22.4117ZM19.4899 19.4899C18.4094 20.5704 17.1363 21.3882 15.7483 21.9123C16.1447 21.4363 16.5142 20.8806 16.8503 20.2481C17.2075 19.5758 17.5158 18.8377 17.7728 18.0493C18.6852 18.2 19.5293 18.3862 20.2813 18.6052C20.0355 18.9121 19.772 19.2078 19.4899 19.4899ZM21.1222 17.3911C20.2487 17.1103 19.2472 16.874 18.1538 16.6875C18.4489 15.4369 18.6248 14.0925 18.6713 12.7039H22.5688C22.4597 14.3763 21.9633 15.9736 21.1222 17.3911Z" fill="inherit"/>
        </g>
    </symbol>
    <symbol viewBox="0 0 20 20" id="ic_edit">
        <g fill="inherit" xmlns="http://www.w3.org/2000/svg">
            <path d="M4.03984 15.625C4.08672 15.625 4.13359 15.6203 4.18047 15.6133L8.12266 14.9219C8.16953 14.9125 8.21406 14.8914 8.24688 14.8563L18.182 4.92109C18.2038 4.89941 18.221 4.87366 18.2328 4.8453C18.2445 4.81695 18.2506 4.78656 18.2506 4.75586C18.2506 4.72516 18.2445 4.69477 18.2328 4.66642C18.221 4.63806 18.2038 4.61231 18.182 4.59063L14.2867 0.692969C14.2422 0.648438 14.1836 0.625 14.1203 0.625C14.057 0.625 13.9984 0.648438 13.9539 0.692969L4.01875 10.6281C3.98359 10.6633 3.9625 10.7055 3.95312 10.7523L3.26172 14.6945C3.23892 14.8201 3.24707 14.9493 3.28545 15.071C3.32384 15.1927 3.39132 15.3032 3.48203 15.393C3.63672 15.543 3.83125 15.625 4.03984 15.625ZM5.61953 11.5375L14.1203 3.03906L15.8383 4.75703L7.3375 13.2555L5.25391 13.6234L5.61953 11.5375ZM18.625 17.5938H1.375C0.960156 17.5938 0.625 17.9289 0.625 18.3438V19.1875C0.625 19.2906 0.709375 19.375 0.8125 19.375H19.1875C19.2906 19.375 19.375 19.2906 19.375 19.1875V18.3438C19.375 17.9289 19.0398 17.5938 18.625 17.5938Z" fill="inherit"/>
        </g>
    </symbol>
</svg>
